# xmcd
#
# Track frame offsets:
#   150
#   8659
#   24904
#   42878
#   58795
#   79115
#   104517
#   127419
#   144698
#   164403
#   188935
#   207728
#   216950
#   235736
#   255783
#   269270
#
# Disc length: 3818 seconds
#
# Revision: 11
# Processed by: cddbd v1.5.1PL0 Copyright (c) Steve Scherf et al.
# Submitted via: Media_Universe 3.0
#
DISCID=e70ee810
DTITLE=Alicia Keys - Songs In A Minor
DYEAR=2002
DGENRE=Blues
TTITLE0=Piano and I (Intro)
TTITLE1=Girlfriend
TTITLE2=How Come You Don't Call Me?
TTITLE3=Fallin'
TTITLE4=Troubles
TTITLE5=Rock With You
TTITLE6=A Woman's Worth
TTITLE7=Jane Doe
TTITLE8=Goodbye
TTITLE9=The Life
TTITLE10=Mr. Man (Feat. Jimmy Cozier)
TTITLE11=Never Felt This Way (Interlude)
TTITLE12=Butterflies
TTITLE13=Why Do I Feel So Sad
TTITLE14=Caged Bird (Outro)
TTITLE15=Loving You (Bonus)
EXTD=YEAR: 2002
EXTT0=
EXTT1=
EXTT2=
EXTT3=
EXTT4=
EXTT5=
EXTT6=
EXTT7=
EXTT8=
EXTT9=
EXTT10=
EXTT11=
EXTT12=
EXTT13=
EXTT14=
EXTT15=
PLAYORDER=
